<svg width="24" height="24" viewBox="0 0 24 24" fill="none" xmlns="http://www.w3.org/2000/svg">
    <path fill-rule="evenodd" clip-rule="evenodd"
        d="M22 3.75C22 3.19772 21.5523 2.75 21 2.75H3C2.44772 2.75 2 3.19772 2 3.75V16.75C2 17.3023 2.44772 17.75 3 17.75H8.08579L11.2929 20.9571C11.6834 21.3476 12.3166 21.3476 12.7071 20.9571L15.9142 17.75H21C21.5523 17.75 22 17.3023 22 16.75V3.75ZM20 4.75V15.75H15.5C15.2348 15.75 14.9804 15.8554 14.7929 16.0429L12 18.8358L9.20711 16.0429C9.01957 15.8554 8.76522 15.75 8.5 15.75H4V4.75H20Z"
        fill="Black" />
    <path fill-rule="evenodd" clip-rule="evenodd"
        d="M5 10.5C5 9.39543 5.89543 8.5 7 8.5C8.10457 8.5 9 9.39543 9 10.5C9 11.6046 8.10457 12.5 7 12.5C5.89543 12.5 5 11.6046 5 10.5Z"
        fill="Black" />
    <path fill-rule="evenodd" clip-rule="evenodd"
        d="M10 10.5C10 9.39543 10.8954 8.5 12 8.5C13.1046 8.5 14 9.39543 14 10.5C14 11.6046 13.1046 12.5 12 12.5C10.8954 12.5 10 11.6046 10 10.5Z"
        fill="Black" />
    <path fill-rule="evenodd" clip-rule="evenodd"
        d="M15 10.5C15 9.39543 15.8954 8.5 17 8.5C18.1046 8.5 19 9.39543 19 10.5C19 11.6046 18.1046 12.5 17 12.5C15.8954 12.5 15 11.6046 15 10.5Z"
        fill="Black" />
</svg>
