<svg width="400" height="400" viewBox="0 0 400 400" fill="none" xmlns="http://www.w3.org/2000/svg">
    <g clip-path="url(#clip0_663_10684)">
        <path
            d="M131.502 360.406C141.781 367.49 204.612 136.137 204.612 136.137L134.016 97.7185C134.016 97.7185 129.409 94.3529 126.416 92.6011C112.912 83.7997 101.926 80.4617 85.746 82.9058C77.4168 85.1653 69.3328 90.4136 64.5634 97.5609C64.1678 98.1882 15.9937 181.177 8.31736 194.406C0.641001 207.635 -2.07079 230.723 1.61981 249.378L2.30834 252.406L3.12206 256.089C8.12544 276.76 21.8508 296.741 40.0221 308.096C40.0221 308.096 121.186 355.299 126.815 358.05C128.387 358.816 129.951 359.599 131.502 360.406Z"
            fill="#357FF0" />
        <path
            d="M224.281 30.0378C225.855 30.0463 225.855 30.0463 227.461 30.0549C244.224 30.3145 258.194 33.6742 275.494 43.7956L359.059 92.2451C358.053 92.2749 347.348 88.4315 346.322 88.4618C343.222 88.5583 340.549 87.616 337.45 87.7253C336.396 87.7562 335.342 87.7872 334.256 87.8191C314.609 88.5434 300.015 93.4944 286.479 107.948L201.44 252.283C184.831 280.855 185.336 281.816 169.014 286.312C167.692 286.312 165.865 287.35 164.503 287.35C164.503 286.67 164.503 288.01 164.503 287.35C151.056 287.644 136.976 291.985 125.658 283.461C123.649 281.967 122.823 281.846 120.391 281.35C117.211 280.644 111.856 272.983 111.856 272.983L173.517 164.35C178 156.087 179.97 145.032 176.185 133.58C172.089 121.19 160.497 113.864 153.15 109.37C151.484 108.35 133.849 97.7453 133.849 97.7453C133.849 97.7453 154.808 63.2972 163.502 54.3503C164.173 53.6478 164.845 52.9452 165.536 52.2214C167.677 50.1894 169.9 48.5298 172.328 46.8503C173.546 45.9995 173.546 45.9995 174.788 45.1316C180.575 41.3621 186.428 38.362 192.796 35.7253C193.484 35.4262 194.172 35.1272 194.881 34.8191C204.407 30.8601 214.042 29.9796 224.281 30.0378Z"
            fill="#2DA950" />
        <path
            d="M335.071 86.96C333.88 86.9812 336.226 86.9394 335.071 86.96C345.495 86.912 356.232 90.6955 356.232 90.6955L359.357 92.2916C359.357 92.2916 372.405 100.206 377.263 105.695C378.348 106.861 378.348 106.861 379.454 108.051C383.19 112.098 386.58 115.876 389.281 120.695C389.765 121.537 390.25 122.379 390.748 123.246C400.609 141.71 401.407 160.663 396.292 180.696C395.246 183.895 393.883 186.736 392.286 189.696L327.384 299.785C318.605 309.237 306.719 313.565 293.951 314.258C283.205 313.989 272.788 309.439 264.199 303.152C260.414 300.537 251.079 296.698 251.079 296.698L307.158 199.696C314.312 187.996 316.96 176.859 314.544 163.133C311.074 149.743 303.407 141.121 292.136 133.695C289.333 132.064 286.508 130.516 283.631 129.02C281.064 127.667 275.186 124.236 275.186 124.236C275.186 124.236 285.548 107.59 289.131 104.07C289.808 103.4 290.486 102.73 291.183 102.04C296.158 97.2827 304.121 92.4581 313.77 89.5275C321.787 87.0924 327.294 86.9949 335.071 86.96Z"
            fill="#E84033" />
        <path
            d="M284.51 129.165C281.667 127.764 275.092 123.941 275.092 123.941C275.02 124.065 199.632 253.542 194.187 262.927C187.512 273.95 179.405 283.96 164.926 286.941C153.327 289.33 128.25 281.739 111.846 272.941L111.846 272.943C111.721 273.248 100.039 301.815 103.835 319.941C107.544 337.656 115.844 349.666 128.872 358.941C143.007 366.472 151.937 369.469 166.54 369.777C179.567 369.822 192.248 366.739 203.984 360.941C208.396 358.145 216.679 350.674 220.59 347.25C227.12 341.533 236.984 324.03 237.034 323.941C237.034 323.941 251.498 297.055 252.057 295.941C252.215 296.008 252.373 296.076 252.53 296.143L310.575 202.328C318.5 190.217 321.434 178.688 318.758 164.48C314.913 150.619 306.42 141.693 293.933 134.006C290.828 132.317 287.697 130.714 284.51 129.165Z"
            fill="#FCBE02" />

    </g>
    <defs>
        <clipPath id="clip0_663_10684">
            <rect width="400" height="400" fill="white" />
        </clipPath>
        <clipPath id="clip1_663_10684">
            <rect width="221" height="283" fill="white" transform="translate(102.759 86.9541)" />
        </clipPath>
    </defs>
</svg>
