<svg width="24" height="24" viewBox="0 0 24 24" fill="none" xmlns="http://www.w3.org/2000/svg">
    <path fill-rule="evenodd" clip-rule="evenodd"
        d="M1 2C1 1.44772 1.44772 1 2 1H22C22.5523 1 23 1.44772 23 2V22C23 22.5523 22.5523 23 22 23H2C1.44772 23 1 22.5523 1 22V2ZM3 3V21H21V3H3Z"
        fill="#2EC4B6" />
    <path fill-rule="evenodd" clip-rule="evenodd"
        d="M1 2C1 1.44772 1.44772 1 2 1H22C22.5523 1 23 1.44772 23 2V7C23 7.55228 22.5523 8 22 8H2C1.44772 8 1 7.55228 1 7V2ZM3 3V6H21V3H3Z"
        fill="#FF9F1C" />
    <path fill-rule="evenodd" clip-rule="evenodd" d="M6.5 5.5H4.5V3.5H6.5V5.5Z" fill="#2EC4B6" />
    <path fill-rule="evenodd" clip-rule="evenodd" d="M10.5 5.5H8.5V3.5H10.5V5.5Z" fill="#2EC4B6" />
    <path fill-rule="evenodd" clip-rule="evenodd" d="M14.5 5.5H12.5V3.5H14.5V5.5Z" fill="#2EC4B6" />
    <path fill-rule="evenodd" clip-rule="evenodd"
        d="M4.29289 13.793L7.79289 10.293L9.20711 11.7072L6.41421 14.5001L9.20711 17.293L7.79289 18.7072L4.29289 15.2072C3.90237 14.8167 3.90237 14.1835 4.29289 13.793Z"
        fill="#FF9F1C" />
    <path fill-rule="evenodd" clip-rule="evenodd"
        d="M19.7071 13.793L16.2071 10.293L14.7929 11.7072L17.5858 14.5001L14.7929 17.293L16.2071 18.7072L19.7071 15.2072C20.0976 14.8167 20.0976 14.1835 19.7071 13.793Z"
        fill="#FF9F1C" />
    <path fill-rule="evenodd" clip-rule="evenodd"
        d="M9.54224 19.2129L12.5422 9.21289L14.4579 9.78759L11.4579 19.7876L9.54224 19.2129Z"
        fill="#FF9F1C" />
</svg>
